<svg id="Layer_1" data-name="Layer 1" xmlns="http://www.w3.org/2000/svg" xmlns:xlink="http://www.w3.org/1999/xlink" viewBox="0 0 100 70"><defs><style>.cls-1{fill:none;}.cls-2{clip-path:url(#clip-path);}.cls-3{fill:#fff;fill-opacity:0.8;}.cls-4{fill:#f60;}</style><clipPath id="clip-path"><rect class="cls-1" x="0.52" y="7.96" width="98.96" height="61.94"/></clipPath></defs><g class="cls-2"><path class="cls-3" d="M13.2,69.9c-1.18,0-2.45,0-4,0H4c-.55,0-.58-.05-.63-.15s-.08-.27.29-.9l0,0c1.48-2.48,2.93-5,4.38-7.44l1.27-2.16c.13-.21.23-.42.36-.66l1-1.79-1.61-.19-.26,0a4.48,4.48,0,0,0-.63-.06h-7a1.09,1.09,0,0,1-.55-.08s-.08-.1-.08-.52V46.28a1.12,1.12,0,0,1,.08-.56,1.09,1.09,0,0,1,.55-.08H5l1.48-7.38H1.42a1.88,1.88,0,0,1-.82-.11S.49,38,.49,37.39q0-12.5,0-24.92a2.08,2.08,0,0,1,.08-.71,1.81,1.81,0,0,1,.69-.08H17.84a1.53,1.53,0,0,1,.64.08,1.67,1.67,0,0,1,.08.63V37.47a1.7,1.7,0,0,1-.08.66,1.58,1.58,0,0,1-.64.1H12.65l1.45,7.39h7.67c2.35,0,4.17,0,5.86,0h0a2.29,2.29,0,0,0,2.24-1.32c.4-.73.82-1.47,1.3-2.24.21-.34.42-.71.66-1.1l.92-1.59H26a3.49,3.49,0,0,1-1.22-.1,3.88,3.88,0,0,1-.1-1.24V9.12a2.67,2.67,0,0,1,.1-1C24.81,8,25,8,25.75,8H74.22a3,3,0,0,1,1,.11,2.71,2.71,0,0,1,.11,1V38.29a2.8,2.8,0,0,1-.11,1,2.52,2.52,0,0,1-1,.1h-7L68.18,41c.21.34.4.71.61,1,.55,1,1.08,1.88,1.66,2.77a2.07,2.07,0,0,0,1.71.82c2.16,0,4.33,0,6.46,0h5.67A1.76,1.76,0,0,0,86.24,44c.16-1,.37-2.06.61-3.14.08-.45.18-.9.29-1.37l.24-1.27h-5a2,2,0,0,1-.87-.1,2.18,2.18,0,0,1-.08-.79V12.55a2.37,2.37,0,0,1,.08-.76,2.59,2.59,0,0,1,.82-.08h8.09c2.27,0,5.23,0,8.21,0a1.42,1.42,0,0,1,.89.21V38a1,1,0,0,1-.79.23h-.1c-.45,0-.93,0-1.53,0H93.55L95,45.59h2.56c.42,0,.77,0,1.11,0h.1a1.07,1.07,0,0,1,.72.21V56.22a1.56,1.56,0,0,1-.93.21H98.5c-.92,0-2,0-3.21,0H89.22L90.09,58a2.48,2.48,0,0,1,.21.39c.13.24.24.45.37.66l2.22,3.75c1.18,2,2.4,4.06,3.58,6.11a1.62,1.62,0,0,1,.29.79,1.36,1.36,0,0,1-.81.16H90.62c-1.58,0-2.8,0-4,0h0a.92.92,0,0,1-1-.58c-1.06-1.82-2.14-3.64-3.19-5.46-1.16-2-2.38-4-3.54-6a2.53,2.53,0,0,0-2.37-1.4c-8.91,0-17.8,0-26.71,0s-17.59,0-26.39,0a2.48,2.48,0,0,0-2.38,1.38L18,63.15c-1.16,1.95-2.35,4-3.51,6a1.11,1.11,0,0,1-1.16.69ZM13,56.43a2.12,2.12,0,0,0-2,1.21c-1.19,2.06-2.43,4.17-3.64,6.2-.61,1-1.22,2-1.8,3.06a2,2,0,0,0-.26.6,1.39,1.39,0,0,0-.1.27L4.5,69.24H9.09c1,0,2.22,0,3.45,0a2,2,0,0,0,1.61-.87c1.64-2.75,3.25-5.46,4.93-8.34l2.09-3.53H15.79c-1.11,0-1.95,0-2.74,0Zm67,.66a.12.12,0,0,1,0,0,1.13,1.13,0,0,0,0,1.08l.18.34C82,61.78,84,65.1,85.87,68.35a1.87,1.87,0,0,0,1.43.87c1.37,0,2.71,0,3.87,0h4.72l-2-3.4-5-8.54a1.78,1.78,0,0,0-1.45-.82c-1.34,0-2.66,0-3.74,0H80.28ZM1.23,55.74H34V46.33H1.23Zm64.79,0H98.74V46.33H66Zm-31.25,0H65.25V46.33H34.77Zm.58-16.41a2.47,2.47,0,0,0-2,.64A12.8,12.8,0,0,0,31.5,42.8c-.21.39-.45.81-.68,1.21l-.95,1.58h3.19a5.56,5.56,0,0,0,.95-.05,2.23,2.23,0,0,0,1.55-.93c.53-.84,1-1.68,1.59-2.66.21-.34.42-.71.65-1.11l1-1.74-2,.16c-.16,0-.31,0-.52,0H35.8A3.39,3.39,0,0,1,35.35,39.31Zm27.48,2.62c.58,1,1.13,1.92,1.69,2.82a1.66,1.66,0,0,0,1.29.84c.34,0,.68,0,1.16,0h3.19L68.63,43c-.56-1-1.08-1.87-1.64-2.74a1.79,1.79,0,0,0-1.34-.87c-.32,0-.66,0-1.11,0H61.35Zm23.78,3.61h7.67l-1.42-7.28h-4.8Zm-36.7-6.17H40.65a2,2,0,0,0-1.63.79c-.58.9-1.11,1.82-1.66,2.77-.19.31-.37.66-.58,1l-.93,1.58H64.2l-.92-1.58c-.19-.34-.4-.66-.58-1-.56-1-1.09-1.87-1.67-2.77a2,2,0,0,0-1.63-.82C56.24,39.39,53.07,39.37,49.91,39.37ZM5.74,45.54h7.67L12,38.29H7.17Zm19.62-6.91H74.67V8.68H25.36ZM1.23,37.5H17.84V12.39H1.23Zm80.93,0H98.77V12.39H82.16Z"/><path class="cls-3" d="M46.16,27.79s-.15-.08-.18-.1a.29.29,0,0,1-.11-.19.66.66,0,0,1,.21-.39c2.77-2.8,5-5.07,7.12-7.1a1.78,1.78,0,0,1,.77-.47,1,1,0,0,1,.16.32,1.29,1.29,0,0,1-.21.31c-2.11,2.14-4.43,4.46-7.31,7.33A.91.91,0,0,1,46.16,27.79Z"/><path class="cls-3" d="M57.55,26.24s0,0,0,0a1.17,1.17,0,0,1-.29-.34,1.1,1.1,0,0,1,.24-.32c1.58-1.63,2.9-2.95,4.16-4.14a1,1,0,0,1,.5-.32s.08,0,.16.11.21.21-.24.69c-1.32,1.31-2.71,2.74-4.16,4.16C57.71,26.18,57.61,26.24,57.55,26.24Z"/><path class="cls-3" d="M37.94,26.24c-.06,0-.14-.08-.19-.11s-.1-.1-.1-.16a1.13,1.13,0,0,1,.31-.5l.58-.58c1.19-1.18,2.4-2.42,3.67-3.56a1,1,0,0,1,.39-.08h0a1.6,1.6,0,0,1,.16.19,1.59,1.59,0,0,1-.21.34c-1.43,1.48-2.9,2.93-4.14,4.17A1.14,1.14,0,0,1,37.94,26.24Z"/><path class="cls-4" d="M90.43,23.05a3.21,3.21,0,0,1,0-6.41h0a3.18,3.18,0,0,1,3.22,3.16,3.23,3.23,0,0,1-3.19,3.25Zm0-5.75a2.54,2.54,0,0,0-2.53,2.58,2.61,2.61,0,0,0,2.58,2.51h0A2.56,2.56,0,0,0,93,19.78a2.53,2.53,0,0,0-2.56-2.51Z"/><path class="cls-4" d="M90.41,33.25a3.23,3.23,0,0,1,0-6.46h.06a3.23,3.23,0,0,1,0,6.46Zm0-5.8a2.57,2.57,0,0,0,.08,5.14h.05a2.63,2.63,0,0,0,1.8-.82A2.66,2.66,0,0,0,93,30a2.59,2.59,0,0,0-2.56-2.5Z"/><path class="cls-4" d="M9.54,23.05a3.22,3.22,0,0,1,0-6.44,3.21,3.21,0,0,1,2.29.95,3.14,3.14,0,0,1,.92,2.27A3.22,3.22,0,0,1,9.54,23.05Zm0-5.75a2.53,2.53,0,0,0-1.79.79A2.42,2.42,0,0,0,7,19.91a2.57,2.57,0,0,0,2.56,2.48h.08a2.63,2.63,0,0,0,2.51-2.64,2.55,2.55,0,0,0-2.56-2.48Z"/><path class="cls-4" d="M9.59,33.28a3.23,3.23,0,0,1,0-6.46,3.23,3.23,0,0,1,0,6.46Zm-.05-5.8a2.64,2.64,0,0,0-1.79.76,2.55,2.55,0,0,0,1.82,4.35h0a2.49,2.49,0,0,0,1.79-.79A2.64,2.64,0,0,0,12.12,30a2.58,2.58,0,0,0-2.55-2.5Z"/><path class="cls-3" d="M47.4,51.34H45.69c-.55,0-.55-.13-.58-.29s0-.19,0-.21a.81.81,0,0,1,.53-.13c1.45,0,2.87,0,4.32,0s2.88,0,4.33,0a.82.82,0,0,1,.52.13c.06,0,.06.16.06.23s0,.29-.58.29H50C49.56,51.34,47.82,51.34,47.4,51.34Z"/></g></svg>