<svg id="Layer_1" data-name="Layer 1" xmlns="http://www.w3.org/2000/svg" xmlns:xlink="http://www.w3.org/1999/xlink" viewBox="0 0 100 70"><defs><style>.cls-1,.cls-3,.cls-4{fill:none;}.cls-2{clip-path:url(#clip-path);}.cls-3{stroke:#fff;}.cls-3,.cls-4{stroke-linecap:round;stroke-miterlimit:10;stroke-width:0.75px;}.cls-4{stroke:#f60;}</style><clipPath id="clip-path"><rect class="cls-1" x="-250.9" y="2.56" width="77.38" height="67.15"/></clipPath></defs><path class="cls-3" d="M26,44.9V63H21.3a3.37,3.37,0,0,1-3.36-3.36V44.9a4,4,0,0,1,5.59-3.67,3.81,3.81,0,0,1,1.24.85A4,4,0,0,1,26,44.9Z"/><path class="cls-3" d="M50.83,55.69V63H26v-7.3a4,4,0,0,1,4-4H46.83A4,4,0,0,1,50.83,55.69Z"/><path class="cls-3" d="M53.24,39.06v2a4,4,0,0,0-2.41,3.68V63H26V44.9a4,4,0,0,0-1.18-2.82,3.81,3.81,0,0,0-1.24-.85V39.06a4,4,0,0,1,4-4H49.24A4,4,0,0,1,53.24,39.06Z"/><polyline class="cls-3" points="23.07 69.09 23.07 62.99 53.7 62.99 53.7 69.09"/><path class="cls-3" d="M58.83,44.76V59.63A3.37,3.37,0,0,1,55.47,63H50.83V44.76a4,4,0,1,1,8,0Z"/><line class="cls-3" x1="11.04" y1="69.15" x2="91.9" y2="69.15"/><rect class="cls-3" x="35.78" y="15.31" width="7.95" height="7.95"/><rect class="cls-3" x="48.94" y="8.52" width="7.95" height="10.77"/><rect class="cls-3" x="61.95" y="18.06" width="13.08" height="9.25"/><rect class="cls-3" x="49.52" y="24.28" width="7.3" height="5.78"/><rect class="cls-3" x="63.62" y="34.2" width="23.38" height="34.89"/><circle class="cls-4" cx="75.31" cy="46.04" r="8.37"/><circle class="cls-4" cx="75.31" cy="46.04" r="2.06"/><circle class="cls-4" cx="75.31" cy="61.64" r="2.42"/></svg>