<svg id="Layer_1" data-name="Layer 1" xmlns="http://www.w3.org/2000/svg" xmlns:xlink="http://www.w3.org/1999/xlink" viewBox="0 0 100 70"><defs><style>.cls-1,.cls-3,.cls-4{fill:none;}.cls-2{clip-path:url(#clip-path);}.cls-3{stroke:#fff;}.cls-3,.cls-4{stroke-linecap:round;stroke-miterlimit:10;stroke-width:0.75px;}.cls-4{stroke:#f60;}</style><clipPath id="clip-path"><rect class="cls-1" x="11.31" y="2.56" width="77.38" height="67.15"/></clipPath></defs><g class="cls-2"><ellipse class="cls-3" cx="51.42" cy="12.23" rx="22.51" ry="7.2"/><path class="cls-3" d="M77.24,44.54c0,3.46-11.56,6.26-25.82,6.26S25.6,48,25.6,44.54"/><path class="cls-3" d="M28.82,12.72,25.6,44.54,28.91,62c0,4,10.08,7.2,22.51,7.2S73.93,66,73.93,62l3.31-17.45L73.93,12.23"/><path class="cls-4" d="M35.35,11.38S41.8,7.71,52.18,8.69"/><line class="cls-4" x1="69.18" y1="30.08" x2="69.18" y2="33.57"/><line class="cls-4" x1="69.33" y1="37.13" x2="69.33" y2="40.62"/><line class="cls-4" x1="60.46" y1="32" x2="60.46" y2="35.49"/><line class="cls-4" x1="60.6" y1="39.05" x2="60.6" y2="42.54"/><line class="cls-4" x1="51.73" y1="33.97" x2="51.73" y2="37.46"/><line class="cls-4" x1="51.88" y1="41.03" x2="51.88" y2="44.52"/><line class="cls-4" x1="42.75" y1="32.15" x2="42.75" y2="35.64"/><line class="cls-4" x1="42.9" y1="39.2" x2="42.9" y2="42.69"/><line class="cls-4" x1="34.12" y1="30.23" x2="34.12" y2="33.72"/><line class="cls-4" x1="34.27" y1="37.28" x2="34.27" y2="40.77"/><circle class="cls-4" cx="51.7" cy="59.08" r="4.53"/></g></svg>