<svg id="Layer_1" data-name="Layer 1" xmlns="http://www.w3.org/2000/svg" xmlns:xlink="http://www.w3.org/1999/xlink" viewBox="0 0 100 70"><defs><style>.cls-1{fill:none;}.cls-2{clip-path:url(#clip-path);}.cls-3{clip-path:url(#clip-path-2);}.cls-4{fill:#fff;fill-opacity:0.8;}.cls-5{fill:#f60;}</style><clipPath id="clip-path"><rect class="cls-1" x="134.71" y="2.56" width="77.38" height="67.15"/></clipPath><clipPath id="clip-path-2"><rect class="cls-1" x="11.31" y="2.56" width="77.38" height="67.15"/></clipPath></defs><g class="cls-3"><path class="cls-4" d="M70.31,69.71v-.47h5V56.87H72.05c-1.27,0-1.79-.54-1.79-1.82V4.41c0-1.27.54-1.82,1.85-1.82h8.22c2.45,0,4.32,0,6.12,0h0a2,2,0,0,1,2.14,1.2v52a1.88,1.88,0,0,1-1.88,1.12,1.46,1.46,0,0,1-.36,0c-.21,0-.44,0-.7,0H83.61V69.11h5.08v.55H70.31ZM77.6,56.85a1.79,1.79,0,0,0-1.3.47,2,2,0,0,0-.47,1.43c0,2.11,0,4.24,0,6.33v4.08H83V56.87H79.47c-.67,0-1.22,0-1.74,0Zm3.05-5.1c-4.12,0-6.8,0-8.18,0-.52,0-1.61.39-1.69,1.3,0,.58,0,1.15,0,1.7v1.58H88.14V51.72H85.72Zm-9.85-.42H85.7v0h2.42V23.78l-1.8,1.88a9.37,9.37,0,0,1-13.75,0l-1.79-1.82V51.33Zm8.67-40.59a8.81,8.81,0,0,0-8.74,8.67,8.56,8.56,0,0,0,2.49,6.12,8.68,8.68,0,0,0,6.15,2.65h.08a8.73,8.73,0,0,0,8.72-8.67,8.83,8.83,0,0,0-8.62-8.77Zm-8.69,4.48,1.79-1.83a9.35,9.35,0,0,1,6.88-3.09h0a9.32,9.32,0,0,1,6.87,3l1.77,1.8v-12H70.78Z"/><path class="cls-4" d="M11.36,69.66v-.44h5V56.87H13.08c-1.25,0-1.8-.57-1.8-1.82q0-25.35,0-50.67a1.56,1.56,0,0,1,1.8-1.79H27.89c1.25,0,1.8.55,1.8,1.79V55.05c0,1.3-.52,1.8-1.85,1.82H24.59V69.19h5.05v.44H11.36Zm5.63-.5h7.13V66.64c0-2.74,0-5.55,0-8.31a1.53,1.53,0,0,0-1.35-1.43c-1,0-2,0-2.84,0H17V69.16ZM11.86,56.35H29.27V53.46a1.63,1.63,0,0,0-.39-1.25,1.55,1.55,0,0,0-1.19-.46h-.13l-.71,0h-15Zm0-5H26.75v-.08h2.47V23.7l-1.79,1.88a9.11,9.11,0,0,1-6.85,3.1h0a9,9,0,0,1-6.85-3.08l-1.8-1.87Zm8.65-40.59a8.88,8.88,0,0,0-8.73,8.72,8.73,8.73,0,0,0,8.65,8.75h.05a8.76,8.76,0,0,0,8.75-8.7,8.88,8.88,0,0,0-8.67-8.77Zm0-.44a9.43,9.43,0,0,1,6.9,3.09l1.77,1.8v-12H11.88v12l1.8-1.82A9.18,9.18,0,0,1,20.53,10.3Z"/><path class="cls-4" d="M50.18,69.71h-10c-2.16,0-3.28-1.12-3.28-3.31V33.88a2.83,2.83,0,0,1,2.16-3,4.48,4.48,0,0,1,1-.07H59.87a2.87,2.87,0,0,1,3.2,3.2V66.43a2.89,2.89,0,0,1-3.23,3.25C56.61,69.71,53.38,69.71,50.18,69.71ZM37.42,66.22c0,2.21.79,3,3,3H59.56c.28,0,.57,0,.88,0A2.17,2.17,0,0,0,62.52,67c0-1.54,0-3.13,0-4.66V59.5H37.45S37.42,64.92,37.42,66.22Zm2.95-35c-2.09,0-2.92.84-2.95,2.92V58.93h25l0-1a1.14,1.14,0,0,1,0-.26c0-.18,0-.39,0-.6v-23c0-2-.86-2.89-2.89-2.89h-9.3Z"/><path class="cls-5" d="M79.45,44.06A4.13,4.13,0,0,1,75.39,40a3.94,3.94,0,0,1,1.19-2.87,4,4,0,0,1,2.89-1.19,4.07,4.07,0,1,1,0,8.14Zm0-7.68A3.65,3.65,0,0,0,75.88,40a3.49,3.49,0,0,0,1,2.52,3.6,3.6,0,0,0,2.55,1.07A3.54,3.54,0,0,0,82,42.5a3.44,3.44,0,0,0,1-2.58,3.6,3.6,0,0,0-3.57-3.56A.1.1,0,0,1,79.4,36.38Z"/><path class="cls-5" d="M79.42,23.57a4.11,4.11,0,0,1-4-4.08,4.06,4.06,0,0,1,8.12,0,4.13,4.13,0,0,1-4.06,4.06Zm0-7.7a3.63,3.63,0,0,0-3.57,3.54,3.48,3.48,0,0,0,1,2.55,3.54,3.54,0,0,0,2.55,1.09A3.48,3.48,0,0,0,82,22a3.61,3.61,0,0,0-2.52-6.14Z"/><path class="cls-5" d="M20.5,44.06a4,4,0,0,1-2.89-1.25A3.86,3.86,0,0,1,16.44,40a4.09,4.09,0,0,1,4.06-4A4.08,4.08,0,0,1,24.59,40a4.12,4.12,0,0,1-4.06,4.08Zm0-7.68a3.61,3.61,0,0,0-3.57,3.54,3.48,3.48,0,0,0,1,2.58,3.54,3.54,0,0,0,2.52,1.07h0a3.6,3.6,0,0,0,0-7.19Z"/><path class="cls-5" d="M20.47,23.57a4.11,4.11,0,0,1-4-4.08,4.1,4.1,0,0,1,4.09-4.07,4.07,4.07,0,0,1,0,8.13Zm0-7.7A3.63,3.63,0,0,0,18,22a3.56,3.56,0,0,0,2.53,1.07,3.67,3.67,0,0,0,2.58-1,3.59,3.59,0,0,0,1.07-2.53,3.63,3.63,0,0,0-3.6-3.59H20.5Z"/><path class="cls-4" d="M50,54.32a7.9,7.9,0,0,1-5.6-13.51A7.86,7.86,0,0,1,50,38.47a8,8,0,0,1,7.94,7.89,8,8,0,0,1-7.89,8h0ZM50,39a7.42,7.42,0,0,0-5.26,2.24,7.3,7.3,0,0,0-2.11,5.29A7.46,7.46,0,0,0,50,53.83H50A7.42,7.42,0,0,0,50,39Z"/><path class="cls-4" d="M45.05,64.14h-.36v.39h.36Z"/><path class="cls-4" d="M50.18,64.14h-.36v.42h.36Z"/><path class="cls-4" d="M55.31,64.14H55v.39h.36Z"/><path class="cls-5" d="M50,49.19a2.9,2.9,0,0,1-2.81-2.81,2.83,2.83,0,0,1,.83-2A2.7,2.7,0,0,1,50,43.6a2.77,2.77,0,0,1,2,4.73A2.75,2.75,0,0,1,50,49.19Zm0-5.1a2.28,2.28,0,0,0-2.29,2.24,2.26,2.26,0,0,0,2.16,2.34H50a2.28,2.28,0,0,0,2.29-2.24,2.2,2.2,0,0,0-.65-1.66A2.39,2.39,0,0,0,50,44.09Z"/></g></svg>