<svg width="97" height="85" viewBox="0 0 97 85" fill="none" xmlns="http://www.w3.org/2000/svg">
<g clip-path="url(#clip0_1_166)">
<path d="M74.0728 84.6578V84.0735H80.3383V68.6531H79.0398C78.7476 68.6531 77.5789 68.6531 77.2867 68.6531C76.9296 68.6531 76.605 68.6531 76.2479 68.6531C74.6572 68.6207 74.0079 67.9714 74.0079 66.3807C74.0079 45.3441 74.0079 24.2751 74.0079 3.23853C74.0079 1.6478 74.6896 0.966058 76.3128 0.966058H77.8061C79.267 0.966058 80.7279 0.966058 82.1888 0.966058C83.6496 0.966058 85.1105 0.966058 86.5714 0.966058C89.623 0.966058 91.9604 0.966058 94.2004 0.933594H94.2653C95.7262 0.933594 96.4728 1.35562 96.9273 2.42693V67.2897C96.4404 68.2636 95.7262 68.6856 94.5899 68.6856C94.4276 68.6856 94.2978 68.6856 94.1354 68.6531C93.8757 68.6207 93.5836 68.6207 93.2589 68.6207C93.0317 68.6207 92.8044 68.6207 92.5772 68.6207C92.3824 68.6207 92.1552 68.6207 91.9604 68.6207H90.6618V83.9111H96.9923V84.5929H74.0728V84.6578ZM83.1627 68.6207C82.903 68.6207 82.1238 68.6207 81.5395 69.205C80.9551 69.8218 80.9551 70.6334 80.9551 70.9905C80.9876 73.6201 80.9876 76.2821 80.9876 78.8792C80.9876 79.8207 80.9876 83.9761 80.9876 83.9761H89.9152V68.6531H88.6166C88.0647 68.6531 87.5453 68.6531 87.0259 68.6531C86.5065 68.6531 85.987 68.6531 85.5001 68.6531C84.656 68.6531 83.9743 68.6531 83.325 68.6207C83.2601 68.6207 83.1951 68.6207 83.1627 68.6207ZM86.9609 62.2578C81.8317 62.2578 78.4879 62.2578 76.7673 62.2902C76.118 62.2902 74.7545 62.7772 74.6572 63.9134C74.5922 64.6276 74.5922 65.3418 74.5922 66.0236C74.5922 66.2508 74.5922 66.4781 74.5922 66.7053V68.0039H96.3105V62.2253H93.2914L86.9609 62.2578ZM74.6896 61.7383H93.2589V61.6734H96.2781V27.3916L94.0381 29.729C91.7331 32.1313 88.6815 33.4623 85.4676 33.4623C82.3186 33.4623 79.267 32.1313 76.8972 29.6965L74.6572 27.4241V61.7383H74.6896ZM85.5001 11.1272C79.5592 11.1272 74.6896 15.9968 74.5922 21.9377C74.5598 24.762 75.6635 27.489 77.7088 29.5667C79.7864 31.6768 82.4809 32.8455 85.3702 32.878H85.4676C91.441 32.878 96.3105 28.0409 96.343 22.0675C96.3755 16.1916 91.4734 11.1922 85.5975 11.1272H85.5001ZM74.6572 16.711L76.8972 14.4385C79.4293 11.8414 82.2212 10.6078 85.4676 10.5754H85.5325C88.7465 10.5754 91.5708 11.809 94.103 14.3736L96.3105 16.6136V1.6478H74.6572V16.711Z" fill="white" fill-opacity="0.8"/>
<path d="M0.574686 84.5929V84.041H6.84021V68.6531H5.54165C5.24948 68.6531 4.04832 68.6531 3.75614 68.6531C3.39904 68.6531 3.0744 68.6531 2.7173 68.6531C1.15904 68.6207 0.477295 67.9389 0.477295 66.3807C0.509759 45.3117 0.509759 24.2751 0.509759 3.20607C0.509759 1.68027 1.22396 0.966064 2.74976 0.966064C5.83383 0.966064 8.91789 0.966064 11.9695 0.966064C15.0211 0.966064 18.1376 0.966064 21.1892 0.966064C22.7475 0.966064 23.4292 1.6478 23.4292 3.20607C23.4292 24.2751 23.4292 45.3117 23.4292 66.3807C23.4292 68.0039 22.7799 68.6207 21.1243 68.6531C20.7997 68.6531 20.475 68.6531 20.1179 68.6531H18.3649H17.0663V84.0085H23.3643V84.5604H0.574686V84.5929ZM7.58687 83.9761H16.482V80.8271C16.482 77.4184 16.482 73.9123 16.4495 70.4711C16.4495 69.692 15.7028 68.7181 14.7614 68.6856C13.5278 68.6531 12.2941 68.6531 11.2228 68.6531H7.55441V83.9761H7.58687ZM1.1915 68.0039H22.9098V66.7053C22.9098 66.4456 22.9098 66.1859 22.9098 65.9262C22.9098 65.3743 22.9098 64.8873 22.9098 64.4004C22.9423 63.7511 22.7799 63.2317 22.4228 62.8421C22.0657 62.4526 21.5463 62.2578 20.9295 62.2578C20.8646 62.2578 20.8321 62.2578 20.7672 62.2578C20.475 62.2578 20.1828 62.2902 19.8907 62.2902H18.2675H1.1915V68.0039ZM1.22396 61.7383H19.7608V61.641H22.8449V27.2942L20.6049 29.6316C18.1376 32.2287 15.3457 33.4948 12.0669 33.4948H12.002C8.69064 33.4948 5.89876 32.2612 3.46397 29.6641L1.22396 27.3267V61.7383ZM12.002 11.1272C6.126 11.1272 1.15904 16.1267 1.12657 22.0026C1.09411 27.976 5.93122 32.878 11.9046 32.9105H11.9695C17.9753 32.9105 22.8449 28.0409 22.8773 22.0676C22.9098 16.1916 17.9428 11.1922 12.0669 11.1272H12.002ZM12.002 10.5754C15.2159 10.5754 18.0402 11.8414 20.6049 14.4386L22.8124 16.6786V1.6478H1.22396V16.6461L3.46397 14.3736C5.96368 11.809 8.75557 10.5754 12.002 10.5754Z" fill="white" fill-opacity="0.8"/>
<path d="M48.9783 84.6578C44.8229 84.6578 40.6675 84.6578 36.5446 84.6578C33.8501 84.6578 32.4542 83.2619 32.4542 80.5349C32.4542 75.5679 32.4542 70.6334 32.4542 65.6665V54.5314C32.4542 49.6943 32.4542 44.8247 32.4542 39.9876C32.4542 38.0073 33.4281 36.6438 35.1487 36.2218C35.5058 36.1244 35.9603 36.1244 36.3823 36.1244C41.2194 36.1244 46.0565 36.1244 50.8936 36.1244C54.2699 36.1244 57.6786 36.1244 61.0548 36.1244C63.6519 36.1244 65.0478 37.5203 65.0478 40.1174C65.0478 53.5899 65.0478 67.0624 65.0478 80.5674C65.0478 83.2294 63.6519 84.6253 61.0223 84.6253C56.9968 84.6578 52.9713 84.6578 48.9783 84.6578ZM33.071 80.3077C33.071 83.0671 34.0449 84.041 36.8043 84.041H46.7382C51.3806 84.041 56.0229 84.041 60.6652 84.041C61.0223 84.041 61.3794 84.041 61.769 84.0085C63.3273 83.8462 64.3336 82.7749 64.3661 81.314C64.3986 79.3987 64.3986 77.4184 64.3986 75.503C64.3986 74.7563 64.3986 73.9772 64.3986 73.2305V71.932H33.1034C33.071 71.932 33.071 78.6845 33.071 80.3077ZM36.7394 36.7087C34.1423 36.7087 33.1034 37.7476 33.071 40.3447C33.071 47.4867 33.071 68.8804 33.071 68.8804V71.2178H64.2687L64.3336 69.9842C64.3336 69.8868 64.3336 69.7569 64.3661 69.6595C64.3661 69.4323 64.3986 69.1726 64.3986 68.9129C64.3986 59.3685 64.3986 49.8241 64.3986 40.2798C64.3986 37.7476 63.3273 36.6763 60.7951 36.6763C56.9319 36.6763 53.0687 36.6763 49.2055 36.6763L36.7394 36.7087Z" fill="white" fill-opacity="0.8"/>
<path d="M85.4676 52.681C82.7407 52.681 80.4033 50.3436 80.4033 47.5841C80.4033 46.2206 80.9227 44.9546 81.8966 44.0131C82.8705 43.0392 84.1366 42.5198 85.5001 42.5198C86.8636 42.5198 88.1621 43.0717 89.136 44.0456C90.0775 45.0195 90.5969 46.2856 90.5969 47.6166C90.5644 50.376 88.292 52.6485 85.5325 52.681H85.4676ZM85.4027 43.1041C83.0004 43.169 81.0201 45.1818 81.0201 47.5841C81.0201 48.7853 81.4746 49.8891 82.3186 50.7331C83.1627 51.5772 84.2989 52.0641 85.5001 52.0641C86.7337 52.0641 87.8375 51.5772 88.6815 50.7331C89.5256 49.8891 89.9801 48.7528 89.9476 47.5192C89.9152 45.0844 87.9349 43.0717 85.5001 43.0717C85.4676 43.1041 85.4352 43.1041 85.4027 43.1041Z" fill="#FF6600"/>
<path d="M85.4352 27.1319C82.7082 27.1319 80.4033 24.7945 80.4033 22.0351C80.4033 20.6716 80.9227 19.4055 81.8641 18.4641C82.838 17.4902 84.1041 16.9707 85.4676 16.9707C86.8311 16.9707 88.1296 17.5226 89.0711 18.4965C90.0125 19.4704 90.5644 20.7365 90.532 22.0676C90.4995 24.827 88.227 27.0994 85.4676 27.1319H85.4352ZM85.4352 17.5226C83.0328 17.5551 81.0201 19.5354 80.9876 21.9377C80.9551 23.1389 81.4096 24.2751 82.2537 25.1192C83.0978 25.9957 84.234 26.4826 85.4352 26.4826C86.6688 26.4826 87.805 26.0281 88.6166 25.1841C89.4607 24.34 89.9152 23.2038 89.9152 22.0026C89.9152 19.5354 87.9024 17.5226 85.4676 17.5226H85.4352Z" fill="#FF6600"/>
<path d="M11.9695 52.681C10.606 52.681 9.33991 52.1291 8.36599 51.1227C7.39208 50.1488 6.87266 48.8827 6.90512 47.5517C6.93759 44.7922 9.21005 42.5198 11.9695 42.5198C13.333 42.5198 14.599 43.0392 15.573 44.0131C16.5469 44.987 17.0663 46.2531 17.0663 47.5841C17.0663 50.3436 14.7614 52.681 12.0019 52.681H11.9695ZM11.9695 43.1041C9.56715 43.1041 7.5544 45.0844 7.52193 47.5192C7.48947 48.7528 7.94396 49.8891 8.78802 50.7331C9.63208 51.5772 10.7359 52.0641 11.937 52.0641H11.9695C14.4692 52.0641 16.4495 50.1163 16.4495 47.6166C16.4495 46.4154 15.995 45.2792 15.1185 44.4351C14.3069 43.5911 13.1706 43.1041 11.9695 43.1041Z" fill="#FF6600"/>
<path d="M11.937 27.1319C9.21008 27.1319 6.90515 24.7945 6.90515 22.0351C6.90515 20.7041 7.42457 19.438 8.39849 18.4641C9.3724 17.4902 10.6385 16.9707 12.002 16.9707C13.3655 16.9707 14.664 17.5226 15.6055 18.4641C16.5469 19.438 17.0663 20.7041 17.0663 22.0351C17.0339 24.7945 14.7939 27.067 12.002 27.0994L11.937 27.1319ZM11.9695 17.5226C9.56718 17.5551 7.58689 19.5354 7.55443 21.9702C7.55443 23.1713 7.97646 24.34 8.82052 25.1841C9.66458 26.0281 10.7683 26.5151 11.9695 26.5151C13.2031 26.5151 14.3069 26.0606 15.1834 25.2165C16.0275 24.3725 16.5144 23.2363 16.5144 22.0676C16.5144 19.6328 14.4692 17.5875 12.0344 17.5875H11.9695V17.5226Z" fill="#FF6600"/>
<path d="M48.751 65.4717C43.3296 65.4717 38.882 61.0566 38.8495 55.6027C38.8495 53.0056 39.8884 50.5058 41.7713 48.6229C43.6542 46.74 46.1214 45.7012 48.751 45.7012C54.1725 45.7012 58.62 50.1163 58.6525 55.5377C58.685 58.1349 57.6461 60.6021 55.7957 62.5175C53.9128 64.4328 51.4455 65.4717 48.8159 65.5041H48.751V65.4717ZM48.6861 46.318C46.1864 46.3505 43.8814 47.3244 42.1284 49.1099C40.3753 50.8954 39.4664 53.2328 39.4988 55.7001C39.5638 60.732 43.7191 64.8549 48.7186 64.8549H48.7835C51.2832 64.8224 53.6206 63.8485 55.3412 62.063C57.0618 60.2775 58.0032 57.9725 57.9707 55.5053C57.9058 50.4734 53.7504 46.3505 48.7186 46.3505L48.6861 46.318Z" fill="white" fill-opacity="0.8"/>
<path d="M42.5829 77.7105H42.1284V78.1975H42.5829V77.7105Z" fill="white" fill-opacity="0.8"/>
<path d="M48.9782 77.7105H48.5237V78.23H48.9782V77.7105Z" fill="white" fill-opacity="0.8"/>
<path d="M55.3736 77.7105H54.9191V78.1975H55.3736V77.7105Z" fill="white" fill-opacity="0.8"/>
<path d="M48.751 59.0763C46.9006 59.0763 45.2774 57.4531 45.2449 55.5702C45.2449 54.6937 45.6345 53.7847 46.2838 53.1354C46.9331 52.4537 47.842 52.0966 48.7186 52.0966C50.6015 52.0966 52.1922 53.6873 52.2247 55.5702C52.2247 56.4467 51.8676 57.3233 51.2183 58.005C50.569 58.6867 49.66 59.0763 48.751 59.0763ZM48.751 52.7134C47.1928 52.7134 45.9267 53.947 45.8942 55.5053C45.8617 57.0636 47.0304 58.3621 48.5887 58.427C48.6536 58.427 48.6861 58.427 48.751 58.427C50.3093 58.427 51.5754 57.1934 51.6078 55.6351C51.6403 54.856 51.3481 54.1093 50.7962 53.5575C50.2444 53.038 49.5302 52.7134 48.751 52.7134Z" fill="#FF6600"/>
</g>
<defs>
<clipPath id="clip0_1_166">
<rect width="96.4825" height="83.7242" fill="white" transform="translate(0.509766 0.933594)"/>
</clipPath>
</defs>
</svg>
