<svg width="119" height="74" viewBox="0 0 119 74" fill="none" xmlns="http://www.w3.org/2000/svg">
<g clip-path="url(#clip0_1_155)">
<path d="M15.5352 73.6577C14.1246 73.6264 12.62 73.6264 10.802 73.6264C9.67353 73.6264 8.54508 73.6264 7.41663 73.6264C6.5703 73.6264 5.69261 73.6264 4.84628 73.6264H4.53282C3.87455 73.6264 3.84321 73.5637 3.78052 73.4383C3.68648 73.2502 3.68648 73.1248 4.12532 72.3725L4.15667 72.3098C5.91203 69.3633 7.63605 66.4168 9.36007 63.4703L10.8647 60.9C11.0214 60.6492 11.1468 60.3984 11.3035 60.1163L12.526 57.9848L10.6139 57.7654C10.4885 57.7654 10.3945 57.734 10.3004 57.734C10.0497 57.7027 9.79892 57.6713 9.54815 57.6713C8.7645 57.6713 8.0122 57.6713 7.22856 57.6713H4.68955C3.52975 57.6713 2.36995 57.6713 1.21016 57.6713C0.67728 57.6713 0.551897 57.5773 0.551897 57.5773C0.551897 57.5773 0.457859 57.4519 0.457859 56.9504C0.457859 53.4083 0.457859 49.6782 0.457859 45.5719C0.457859 45.039 0.551897 44.9136 0.551897 44.9136C0.551897 44.9136 0.67728 44.8195 1.21016 44.8195C1.649 44.8195 2.08784 44.8195 2.55803 44.8195C2.90283 44.8195 3.27898 44.8195 3.62379 44.8195C3.99994 44.8195 4.37609 44.8195 4.78358 44.8195H5.818L7.57336 36.0427H3.24764C2.68341 36.0427 2.11919 36.0427 1.52362 36.0427C0.739972 36.0427 0.583243 35.9173 0.551897 35.9173C0.551897 35.9173 0.426514 35.7606 0.426514 35.0083C0.457859 25.103 0.457859 15.2291 0.457859 5.3865C0.457859 4.72824 0.551897 4.57151 0.551897 4.54017C0.551897 4.54017 0.739972 4.44613 1.36689 4.44613C4.59551 4.44613 7.85547 4.44613 11.0841 4.44613C14.4068 4.44613 17.7294 4.44613 21.0521 4.44613C21.5536 4.44613 21.7417 4.50882 21.8044 4.54017C21.8357 4.60286 21.8984 4.79093 21.8984 5.29247C21.8984 15.2291 21.8984 25.1657 21.8984 35.1023C21.8984 35.7293 21.8044 35.8546 21.8044 35.886C21.8044 35.886 21.6476 35.98 21.0521 36.0114C20.4565 36.0114 19.8923 36.0114 19.2967 36.0114C18.8265 36.0114 16.8831 36.0114 16.3815 36.0114H14.8769L16.601 44.7882H25.7226C28.5124 44.7882 30.6752 44.7882 32.6814 44.8195H32.7127C33.4964 44.8195 34.6562 44.6628 35.3771 43.2523C35.8473 42.3746 36.3488 41.4969 36.9131 40.5879C37.1638 40.1804 37.4146 39.7415 37.6967 39.2713L38.7938 37.3906H30.7066C29.7035 37.3906 29.3587 37.3279 29.2647 37.2652C29.202 37.1398 29.1393 36.795 29.1393 35.792V1.40558C29.1393 0.5279 29.202 0.245788 29.2647 0.15175C29.3274 0.0890588 29.6095 0.0263672 30.4558 0.0263672H88.0694C88.9471 0.0263672 89.2292 0.120405 89.3233 0.15175C89.3546 0.245788 89.4487 0.496554 89.4487 1.34289C89.4487 12.9095 89.4487 24.5075 89.4487 36.0741C89.4487 37.0144 89.3233 37.2339 89.3233 37.2652C89.3233 37.2652 89.1039 37.3906 88.1635 37.3906C87.4112 37.3906 84.0258 37.3906 84.0258 37.3906H79.7942L80.8913 39.2713C81.142 39.6788 81.3614 40.1177 81.6122 40.4938C82.2705 41.6536 82.8974 42.7194 83.587 43.7851C84.0885 44.5688 85.0916 44.7569 85.6245 44.7569C88.1948 44.7569 90.7652 44.7569 93.3042 44.7882C95.5611 44.7882 97.7867 44.7882 100.044 44.7882C101.705 44.7882 102.238 43.7538 102.363 42.8761C102.551 41.6536 102.802 40.4311 103.084 39.146C103.178 38.6131 103.304 38.0802 103.429 37.516L103.711 36.0114H99.448C98.8838 36.0114 98.3509 36.0114 97.7867 36.0114C96.9403 36.0114 96.7522 35.886 96.7522 35.886C96.7522 35.886 96.6582 35.6979 96.6582 34.9456C96.6582 25.1344 96.6582 15.3231 96.6582 5.48054C96.6582 4.88497 96.7209 4.6342 96.7522 4.57151C96.8463 4.54017 97.097 4.47747 97.724 4.47747H107.347C110.043 4.47747 113.554 4.47747 117.096 4.44613C117.66 4.44613 117.942 4.54017 118.161 4.6969V35.7293C117.973 35.9173 117.723 36.0114 117.221 36.0114C117.19 36.0114 117.127 36.0114 117.096 36.0114C116.563 35.98 115.999 35.98 115.278 35.98C114.839 35.98 114.4 35.98 113.961 35.98C113.522 35.98 113.052 35.98 112.582 35.98H111.046L112.801 44.7569H113.836C114.181 44.7569 114.557 44.7569 114.87 44.7569C115.215 44.7569 115.528 44.7569 115.842 44.7569C116.343 44.7569 116.751 44.7569 117.158 44.7255C117.19 44.7255 117.252 44.7255 117.284 44.7255C117.691 44.7255 117.942 44.8195 118.13 44.9763V57.3892C117.911 57.546 117.597 57.64 117.033 57.64H116.939C115.842 57.6087 114.619 57.6087 113.115 57.6087C112.3 57.6087 111.485 57.6087 110.638 57.6087C109.792 57.6087 108.914 57.6087 108.037 57.6087H105.905L106.94 59.4581C107.034 59.6148 107.128 59.7715 107.19 59.9282C107.347 60.2104 107.473 60.4611 107.629 60.7119C108.507 62.1851 109.385 63.6897 110.262 65.163C111.673 67.5766 113.115 69.9902 114.525 72.4352C114.839 72.9681 114.87 73.2816 114.87 73.3756C114.807 73.4383 114.494 73.5637 113.898 73.5637H112.77C111.892 73.5637 111.046 73.5637 110.168 73.5637C109.291 73.5637 108.444 73.5637 107.567 73.5637C105.686 73.5637 104.244 73.5637 102.865 73.595H102.833C102.269 73.595 102.018 73.4383 101.705 72.9054C100.451 70.7426 99.1659 68.5797 97.912 66.4168C96.5328 64.0659 95.0909 61.6209 93.7117 59.2386C93.0534 58.1102 92.1758 57.5773 90.8906 57.5773C80.2957 57.5773 69.7321 57.6087 59.1372 57.6087C48.6677 57.6087 38.2296 57.6087 27.7601 57.5773C26.4435 57.5773 25.5659 58.0788 24.9389 59.2073C23.6851 61.3388 22.3999 63.533 21.1775 65.6332C19.7982 67.9528 18.3877 70.3664 17.0085 72.78C16.6323 73.407 16.3502 73.595 15.6292 73.595L15.5352 73.6577ZM15.2531 57.64C14.156 57.64 13.4037 58.0788 12.8395 59.0819C11.4289 61.5269 9.95565 64.0345 8.51374 66.4482C7.79278 67.6707 7.07183 68.8618 6.38222 70.0843C6.22549 70.3351 6.13145 70.5545 6.06876 70.8052C6.03742 70.8993 5.97473 70.9933 5.94338 71.1187L5.19108 72.8741H10.6453C11.8364 72.8741 13.2783 72.8741 14.7516 72.8427C15.4098 72.8427 16.2562 72.4666 16.6637 71.8083C18.6071 68.5483 20.5192 65.3197 22.5253 61.903L25.0016 57.7027H22.8074C22.0551 57.7027 21.3342 57.7027 20.6132 57.7027C19.9236 57.7027 19.2654 57.7027 18.6071 57.7027C17.2906 57.7027 16.2875 57.7027 15.3471 57.6713L15.2531 57.64ZM94.9342 58.4236C94.9342 58.455 94.9028 58.4863 94.9028 58.4863C94.6207 59.0819 94.7775 59.5521 94.9028 59.7715L95.1223 60.179C97.3478 64.0032 99.6361 67.9528 101.924 71.8083C102.206 72.3098 102.896 72.8114 103.617 72.8427C105.247 72.8741 106.846 72.8741 108.225 72.8741H113.836L111.453 68.8305C109.385 65.3197 107.441 62.0284 105.466 58.6744C105.122 58.1102 104.401 57.7027 103.742 57.7027C102.144 57.7027 100.576 57.6713 99.2912 57.6713H95.279L94.9342 58.4236ZM1.3042 56.825H40.2357V45.6345H1.3042V56.825ZM78.3209 56.7937H117.221V45.6345H78.3209V56.7937ZM41.1761 56.7937H77.4119V45.6345H41.1761V56.7937ZM41.8657 37.2966C40.988 37.2966 40.1103 37.3906 39.5148 38.0489C38.5744 39.0519 37.9475 40.2117 37.2892 41.4342C37.0384 41.9044 36.7563 42.4059 36.4742 42.8761L35.3458 44.7569H37.54C37.8534 44.7569 38.1669 44.7569 38.4177 44.7569C38.6684 44.7569 38.9192 44.7569 39.1386 44.7569C39.5774 44.7569 39.9223 44.7569 40.2671 44.6942C40.988 44.6315 41.7403 44.1613 42.1165 43.5971C42.7434 42.594 43.339 41.5909 43.9972 40.4311C44.248 40.0236 44.4987 39.5848 44.7809 39.1146L46.0033 37.0458L43.5897 37.2339C43.4016 37.2339 43.2136 37.2652 42.9628 37.2652C42.7747 37.2652 42.5867 37.2652 42.3986 37.2652C42.2105 37.2966 42.0538 37.2966 41.8657 37.2966ZM74.5281 40.3998C75.2177 41.5596 75.8759 42.688 76.5342 43.7538C76.785 44.1926 77.3492 44.7255 78.0701 44.7569C78.4776 44.7882 78.8851 44.7882 79.4493 44.7882C79.7001 44.7882 79.9509 44.7882 80.2016 44.7882C80.4838 44.7882 80.7659 44.7882 81.048 44.7882H83.2422L81.4241 41.7163C80.7659 40.5879 80.139 39.4908 79.4807 38.4563C79.1986 37.9862 78.5717 37.4533 77.882 37.4219C77.5059 37.3906 77.0984 37.3906 76.5655 37.3906C76.3148 37.3906 76.064 37.3906 75.8132 37.3906C75.5311 37.3906 75.249 37.3906 74.9669 37.3906H72.7727L74.5281 40.3998ZM102.802 44.6942H111.924L110.231 36.0427H104.526L102.802 44.6942ZM59.1686 37.3592C55.5011 37.3592 51.8337 37.3592 48.1662 37.3592C47.6647 37.3592 46.693 37.5473 46.2228 38.2996C45.5332 39.3654 44.9062 40.4625 44.248 41.5909C44.0286 41.9671 43.8091 42.3746 43.5584 42.7507L42.4613 44.6315H76.158L75.0609 42.7507C74.8415 42.3432 74.5907 41.9671 74.3713 41.5909C73.7131 40.4625 73.0861 39.3654 72.3965 38.2996C71.9263 37.5473 70.9546 37.3279 70.4531 37.3279C66.6916 37.3906 62.9301 37.3592 59.1686 37.3592ZM6.66433 44.6942H15.786L14.0619 36.0741H8.35701L6.66433 44.6942ZM29.9856 36.4816H88.6023V0.872705H29.9856V36.4816ZM1.3042 35.1337H21.0521V5.29247H1.3042V35.1337ZM97.5045 35.1337H117.252V5.29247H97.5045V35.1337Z" fill="white" fill-opacity="0.8"/>
<path d="M54.7175 23.5984C54.6548 23.5984 54.5294 23.5044 54.4981 23.473C54.4041 23.379 54.3727 23.3163 54.3727 23.2536C54.3727 23.1282 54.4667 22.9402 54.6235 22.7834C57.9148 19.4608 60.6105 16.765 63.0869 14.3514C63.369 14.0693 63.7138 13.8499 63.9959 13.7872C64.0586 13.8499 64.1213 13.9752 64.184 14.1633C64.1213 14.2887 64.0272 14.4768 63.9332 14.5395C61.4255 17.0785 58.6671 19.8369 55.2504 23.2536C54.9996 23.5044 54.7802 23.5984 54.7175 23.5984Z" fill="white" fill-opacity="0.8"/>
<path d="M68.2589 21.749C68.2589 21.749 68.2276 21.749 68.2276 21.7177C68.1335 21.655 68.0081 21.4983 67.8828 21.3102C67.9768 21.1535 68.0708 20.9967 68.1649 20.934C70.0456 18.9906 71.6129 17.4233 73.1175 16.0127C73.431 15.6993 73.6504 15.6366 73.7131 15.6366C73.7444 15.6366 73.8071 15.6679 73.9011 15.762C74.0265 15.8874 74.1519 16.0127 73.619 16.577C72.0517 18.1443 70.3904 19.8369 68.6664 21.5296C68.447 21.6863 68.3216 21.749 68.2589 21.749Z" fill="white" fill-opacity="0.8"/>
<path d="M44.9376 21.749C44.8749 21.749 44.7809 21.655 44.7182 21.6237C44.6868 21.5923 44.5928 21.4983 44.5928 21.4356C44.5928 21.3415 44.7182 21.1221 44.969 20.84L45.6586 20.1504C47.0691 18.7398 48.511 17.2666 50.0156 15.9187C50.047 15.8874 50.2664 15.8247 50.4858 15.8247H50.5172C50.5799 15.8874 50.6425 15.9501 50.7052 16.0441C50.6112 16.2322 50.5172 16.3889 50.4545 16.4516C48.7618 18.207 47.0064 19.931 45.5332 21.4042C45.157 21.7177 44.969 21.749 44.9376 21.749Z" fill="white" fill-opacity="0.8"/>
<path d="M107.347 17.9562C105.278 17.9562 103.523 16.2322 103.523 14.1633C103.523 12.0632 105.216 10.3391 107.316 10.3391H107.347C109.479 10.3391 111.14 12.0005 111.171 14.1006C111.203 16.2008 109.479 17.9248 107.378 17.9562H107.347ZM107.316 11.1228C105.623 11.1541 104.275 12.5333 104.307 14.1947C104.338 15.8247 105.749 17.1725 107.378 17.1725H107.41C108.225 17.1725 108.977 16.8277 109.541 16.2322C110.106 15.6366 110.419 14.8843 110.388 14.0693C110.356 12.408 109.04 11.0914 107.347 11.0914L107.316 11.1228Z" fill="#FF6600"/>
<path d="M107.316 30.087C105.184 30.0243 103.492 28.269 103.523 26.2001C103.554 24.1627 105.31 22.4073 107.347 22.4073H107.41C109.51 22.4386 111.203 24.194 111.171 26.2942C111.14 28.3316 109.416 30.087 107.41 30.087H107.316ZM107.284 23.1909C105.654 23.2536 104.275 24.6955 104.307 26.3255C104.369 27.9242 105.749 29.3034 107.378 29.3034H107.441C108.256 29.272 109.008 28.9272 109.573 28.3316C110.137 27.7361 110.419 26.9524 110.419 26.1688C110.388 24.5388 109.008 23.1909 107.378 23.1909H107.284Z" fill="#FF6600"/>
<path d="M11.1782 17.9562C10.1751 17.9562 9.20337 17.5487 8.48242 16.7964C7.76146 16.0754 7.38531 15.1037 7.38531 14.1006C7.41666 11.9378 9.07799 10.3078 11.2095 10.3078C12.2439 10.3078 13.2156 10.7153 13.9366 11.4363C14.6575 12.1572 15.0337 13.0976 15.0337 14.132C15.0337 16.2635 13.3097 17.9562 11.1782 17.9562ZM11.1468 11.1228C10.3318 11.1541 9.57952 11.4676 9.0153 12.0632C8.45107 12.6274 8.16896 13.411 8.20031 14.226C8.23165 15.856 9.61087 17.1725 11.2409 17.1725H11.3349C12.9962 17.1098 14.3441 15.6993 14.3127 14.038C14.2501 12.3766 12.9335 11.0914 11.2722 11.0914L11.1468 11.1228Z" fill="#FF6600"/>
<path d="M11.2409 30.1184C9.14071 30.1184 7.41669 28.3943 7.41669 26.2942C7.41669 24.194 9.10936 22.47 11.2095 22.4386C13.2784 22.4386 15.0337 24.194 15.0651 26.2628C15.0651 27.2345 14.6576 28.2063 13.9366 28.9586C13.1843 29.6795 12.2126 30.1184 11.2409 30.1184ZM11.1782 23.2223C10.3945 23.2223 9.64224 23.5671 9.04667 24.1313C8.48244 24.7269 8.16899 25.4792 8.16899 26.2942C8.20033 27.9555 9.5482 29.3034 11.2095 29.3034H11.2409C12.0245 29.3034 12.8082 28.9586 13.3724 28.363C13.9366 27.7674 14.2501 26.9838 14.2501 26.2001C14.2501 24.6015 12.8395 23.2223 11.2095 23.2223H11.1782Z" fill="#FF6600"/>
<path d="M56.1908 51.5903C55.5012 51.5903 54.8429 51.5903 54.1533 51.5903C53.495 51.5903 53.495 51.4335 53.4637 51.2454C53.4637 51.1828 53.4637 51.026 53.5264 50.9947C53.5891 50.932 53.8085 50.838 54.1533 50.838C55.8773 50.838 57.57 50.8066 59.294 50.8066C61.018 50.8066 62.7107 50.8066 64.4347 50.838C64.7795 50.838 64.9676 50.932 65.0616 50.9947C65.1243 51.0574 65.1243 51.1828 65.1243 51.2768C65.1243 51.4649 65.1243 51.6216 64.4347 51.6216C63.7451 51.6216 63.0555 51.6216 62.3972 51.6216C61.8957 51.6216 59.8269 51.6216 59.3254 51.6216C58.7611 51.5903 56.6923 51.5903 56.1908 51.5903Z" fill="white" fill-opacity="0.8"/>
</g>
<defs>
<clipPath id="clip0_1_155">
<rect width="117.641" height="73.6313" fill="white" transform="translate(0.457886 0.0263672)"/>
</clipPath>
</defs>
</svg>
