<svg width="25" height="24" viewBox="0 0 25 24" fill="none" xmlns="http://www.w3.org/2000/svg">
<path d="M22.5371 22L20.5371 20M12.0371 21C13.2847 21 14.52 20.7543 15.6726 20.2769C16.8252 19.7994 17.8725 19.0997 18.7546 18.2175C19.6368 17.3354 20.3365 16.2881 20.814 15.1355C21.2914 13.9829 21.5371 12.7476 21.5371 11.5C21.5371 10.2524 21.2914 9.0171 20.814 7.86451C20.3365 6.71191 19.6368 5.66464 18.7546 4.78249C17.8725 3.90033 16.8252 3.20056 15.6726 2.72314C14.52 2.24572 13.2847 2 12.0371 2C9.51755 2 7.10119 3.00089 5.31959 4.78249C3.538 6.56408 2.53711 8.98044 2.53711 11.5C2.53711 14.0196 3.538 16.4359 5.31959 18.2175C7.10119 19.9991 9.51755 21 12.0371 21Z" stroke="white" stroke-width="1.5" stroke-linecap="round" stroke-linejoin="round"/>
</svg>
