<svg width="24" height="25" viewBox="0 0 24 25" fill="none" xmlns="http://www.w3.org/2000/svg">
<path d="M2 2.96533H3.74C4.82 2.96533 5.67 3.89533 5.58 4.96533L4.75 14.9253C4.71759 15.3112 4.76569 15.6996 4.89123 16.0659C5.01678 16.4322 5.21705 16.7684 5.47934 17.0533C5.74163 17.3381 6.06023 17.5654 6.41495 17.7207C6.76967 17.876 7.15278 17.9559 7.54 17.9553H18.19C19.63 17.9553 20.89 16.7753 21 15.3453L21.54 7.84533C21.66 6.18533 20.4 4.83533 18.73 4.83533H5.82M9 8.96533H21M16.25 22.9653C16.5815 22.9653 16.8995 22.8336 17.1339 22.5992C17.3683 22.3648 17.5 22.0469 17.5 21.7153C17.5 21.3838 17.3683 21.0659 17.1339 20.8314C16.8995 20.597 16.5815 20.4653 16.25 20.4653C15.9185 20.4653 15.6005 20.597 15.3661 20.8314C15.1317 21.0659 15 21.3838 15 21.7153C15 22.0469 15.1317 22.3648 15.3661 22.5992C15.6005 22.8336 15.9185 22.9653 16.25 22.9653ZM8.25 22.9653C8.58152 22.9653 8.89946 22.8336 9.13388 22.5992C9.3683 22.3648 9.5 22.0469 9.5 21.7153C9.5 21.3838 9.3683 21.0659 9.13388 20.8314C8.89946 20.597 8.58152 20.4653 8.25 20.4653C7.91848 20.4653 7.60054 20.597 7.36612 20.8314C7.1317 21.0659 7 21.3838 7 21.7153C7 22.0469 7.1317 22.3648 7.36612 22.5992C7.60054 22.8336 7.91848 22.9653 8.25 22.9653Z" stroke="white" stroke-width="1.5" stroke-miterlimit="10" stroke-linecap="round" stroke-linejoin="round"/>
</svg>
