<svg width="25" height="25" viewBox="0 0 25 25" fill="none" xmlns="http://www.w3.org/2000/svg">
<path d="M16.0264 2.5H8.02637C4.02637 2.5 2.02637 4.5 2.02637 8.5V21.5C2.02637 22.05 2.47637 22.5 3.02637 22.5H16.0264C20.0264 22.5 22.0264 20.5 22.0264 16.5V8.5C22.0264 4.5 20.0264 2.5 16.0264 2.5Z" stroke="white" stroke-width="1.5" stroke-linecap="round" stroke-linejoin="round"/>
<path d="M12.9364 8.33991L7.74641 13.5299C7.54641 13.7299 7.35641 14.1199 7.31641 14.3999L7.03641 16.3799C6.93641 17.0999 7.43641 17.5999 8.15641 17.4999L10.1364 17.2199C10.4164 17.1799 10.8064 16.9899 11.0064 16.7899L16.1964 11.5999C17.0864 10.7099 17.5164 9.66991 16.1964 8.34991C14.8764 7.01991 13.8364 7.43991 12.9364 8.33991Z" stroke="white" stroke-width="1.5" stroke-miterlimit="10" stroke-linecap="round" stroke-linejoin="round"/>
<path d="M12.1964 9.08008C12.4135 9.85526 12.8266 10.5615 13.3958 11.1307C13.965 11.6999 14.6712 12.113 15.4464 12.3301" stroke="white" stroke-width="1.5" stroke-miterlimit="10" stroke-linecap="round" stroke-linejoin="round"/>
</svg>
