<svg width="25" height="25" viewBox="0 0 25 25" fill="none" xmlns="http://www.w3.org/2000/svg">
<path d="M21.9964 18.83C21.9964 19.19 21.9164 19.56 21.7464 19.92C21.5764 20.28 21.3564 20.62 21.0664 20.94C20.5764 21.48 20.0364 21.87 19.4264 22.12C18.8264 22.37 18.1764 22.5 17.4764 22.5C16.4564 22.5 15.3664 22.26 14.2164 21.77C13.0664 21.28 11.9164 20.62 10.7764 19.79C9.61448 18.9401 8.51806 18.0041 7.49637 16.99C6.48513 15.972 5.55247 14.8789 4.70637 13.72C3.88637 12.58 3.22637 11.44 2.74637 10.31C2.26637 9.17 2.02637 8.08 2.02637 7.04C2.02637 6.36 2.14637 5.71 2.38637 5.11C2.62637 4.5 3.00637 3.94 3.53637 3.44C4.17637 2.81 4.87637 2.5 5.61637 2.5C5.89637 2.5 6.17637 2.56 6.42637 2.68C6.68637 2.8 6.91637 2.98 7.09637 3.24L9.41637 6.51C9.59637 6.76 9.72637 6.99 9.81637 7.21C9.90637 7.42 9.95637 7.63 9.95637 7.82C9.95637 8.06 9.88637 8.3 9.74637 8.53C9.61637 8.76 9.42637 9 9.18637 9.24L8.42637 10.03C8.31637 10.14 8.26637 10.27 8.26637 10.43C8.26637 10.51 8.27637 10.58 8.29637 10.66C8.32637 10.74 8.35637 10.8 8.37637 10.86C8.55637 11.19 8.86637 11.62 9.30637 12.14C9.75637 12.66 10.2364 13.19 10.7564 13.72C11.2964 14.25 11.8164 14.74 12.3464 15.19C12.8664 15.63 13.2964 15.93 13.6364 16.11C13.6864 16.13 13.7464 16.16 13.8164 16.19C13.8964 16.22 13.9764 16.23 14.0664 16.23C14.2364 16.23 14.3664 16.17 14.4764 16.06L15.2364 15.31C15.4864 15.06 15.7264 14.87 15.9564 14.75C16.1864 14.61 16.4164 14.54 16.6664 14.54C16.8564 14.54 17.0564 14.58 17.2764 14.67C17.4964 14.76 17.7264 14.89 17.9764 15.06L21.2864 17.41C21.5464 17.59 21.7264 17.8 21.8364 18.05C21.9364 18.3 21.9964 18.55 21.9964 18.83Z" stroke="white" stroke-width="1.5" stroke-miterlimit="10"/>
</svg>
