<svg width="1200" height="30" viewBox="0 0 1200 30" fill="none" xmlns="http://www.w3.org/2000/svg">
<path d="M1199.79 0.612024L923.344 0.612L923.344 2.4245L1199.79 2.42452L1199.79 0.612024Z" fill="#F9BB19"/>
<path d="M922.606 0.611996L616.571 0.611969L616.571 2.42447L922.606 2.4245L922.606 0.611996Z" fill="#7D7D7D"/>
<path d="M1200.25 26.8421L961.965 26.8421L961.965 29.5609L1200.25 29.5609L1200.25 26.8421Z" fill="#F2F2F2"/>
<path d="M961.698 26.8421L698.492 26.8421L698.492 29.5609L961.698 29.5609L961.698 26.8421Z" fill="#7D7D7D"/>
<path d="M1123.7 16.427L923.344 16.427L923.344 17.7406L1123.7 17.7406L1123.7 16.427Z" fill="#F9BB19"/>
<path d="M923.301 16.1777L308.116 16.1776L308.116 17.9901L923.301 17.9902L923.301 16.1777Z" fill="#7D7D7D"/>
<path d="M308.594 16.1776L0.2229 16.1776L0.2229 17.9901L308.594 17.9901L308.594 16.1776Z" fill="#FF6600"/>
</svg>
