<svg id="Layer_1" data-name="Layer 1" xmlns="http://www.w3.org/2000/svg" viewBox="0 0 65 65"><defs><style>.cls-1,.cls-2{fill:none;stroke-linecap:round;stroke-linejoin:round;}.cls-1{stroke:#000;}.cls-2{stroke:#f60;}</style></defs><path class="cls-1" d="M61.5,32.66V55.51a3.19,3.19,0,0,1-3.19,3.19H50.6V45.32H14.4V58.7H6.69A3.19,3.19,0,0,1,3.5,55.51V32.66a3.19,3.19,0,0,1,3.19-3.19H58.31A3.19,3.19,0,0,1,61.5,32.66Z"/><path class="cls-1" d="M50.6,45.32v15.6A3.61,3.61,0,0,1,47,64.53H18a3.61,3.61,0,0,1-3.61-3.61V45.32Z"/><path class="cls-1" d="M50.6,15V29.47H14.4V15A3.61,3.61,0,0,1,18,11.41H47A3.61,3.61,0,0,1,50.6,15Z"/><line class="cls-2" x1="17.76" y1="51.96" x2="47.6" y2="51.96"/><line class="cls-2" x1="17.76" y1="58.07" x2="47.6" y2="58.07"/><circle class="cls-2" cx="49.55" cy="37.18" r="2.39"/></svg>