<svg id="Layer_1" data-name="Layer 1" xmlns="http://www.w3.org/2000/svg" viewBox="0 0 65 65"><defs><style>.cls-1,.cls-2{fill:none;stroke-linecap:round;stroke-linejoin:round;}.cls-1{stroke:#000;}.cls-2{stroke:#f60;}</style></defs><path class="cls-1" d="M49.17,18.84V62.72A2.27,2.27,0,0,1,46.9,65H23.43a2.28,2.28,0,0,1-2.28-2.28V18.84a2.27,2.27,0,0,1,2.28-2.27H46.9A2.26,2.26,0,0,1,49.17,18.84Z"/><rect class="cls-2" x="25.86" y="21.74" width="18.61" height="18.03" rx="2.28"/><rect class="cls-1" x="25.86" y="44.97" width="4.55" height="2.98" rx="0.5"/><rect class="cls-1" x="32.91" y="44.97" width="4.55" height="2.98" rx="0.5"/><rect class="cls-2" x="39.96" y="44.97" width="4.55" height="2.98" rx="0.5"/><rect class="cls-2" x="25.86" y="51.35" width="4.55" height="2.98" rx="0.5"/><rect class="cls-1" x="32.91" y="51.35" width="4.55" height="2.98" rx="0.5"/><rect class="cls-1" x="39.96" y="51.35" width="4.55" height="2.98" rx="0.5"/><rect class="cls-1" x="25.86" y="57.74" width="4.55" height="2.98" rx="0.5"/><rect class="cls-1" x="32.91" y="57.74" width="4.55" height="2.98" rx="0.5"/><rect class="cls-2" x="39.96" y="57.74" width="4.55" height="2.98" rx="0.5"/><path class="cls-1" d="M28.85,10.65v5.92H24.37V10.65a2.24,2.24,0,1,1,4.48,0Z"/></svg>