<svg id="Layer_1" data-name="Layer 1" xmlns="http://www.w3.org/2000/svg" viewBox="0 0 65 65"><defs><style>.cls-1,.cls-2{fill:none;stroke-linecap:round;stroke-linejoin:round;}.cls-1{stroke:#000;}.cls-2{stroke:#f60;}</style></defs><path class="cls-1" d="M47.84,64.46c-.59,0-1.19-.09-1.77-.15a26.17,26.17,0,0,1-5.91-1.44,43.65,43.65,0,0,1-9.91-5.16A74.57,74.57,0,0,1,16.78,45.65,58.32,58.32,0,0,1,9.29,35.28,36.26,36.26,0,0,1,5.55,26,20.65,20.65,0,0,1,5,21.18,4.07,4.07,0,0,1,6.2,18.23l8-7.94.14-.14a.81.81,0,0,1,1.36.23c.54,1,1.06,2,1.58,3l5,9.31A1.93,1.93,0,0,1,21.84,25c-.92.92-1.85,1.83-2.76,2.76a3.23,3.23,0,0,0-.91,3.28,16.61,16.61,0,0,0,1.93,4.27A41.26,41.26,0,0,0,26,42.66a43.32,43.32,0,0,0,7.49,6.28,16.23,16.23,0,0,0,4.92,2.28,3.14,3.14,0,0,0,3.09-.88c1.12-1.09,2.22-2.21,3.33-3.32a1.82,1.82,0,0,1,2.38-.3L59,53.65a.86.86,0,0,1,.21,1.52c-2.7,2.71-5.39,5.42-8.11,8.11a3.8,3.8,0,0,1-2.59,1.14,2.2,2.2,0,0,0-.36,0Z"/><path class="cls-2" d="M29.73,9.79c.67,0,1.33.06,2,.13A29.58,29.58,0,0,1,50,19a30.43,30.43,0,0,1,7.52,12.26,25.9,25.9,0,0,1,1.26,7.24v.31"/><path class="cls-2" d="M29.74,18.82A21.56,21.56,0,0,1,49.66,38.75"/><path class="cls-2" d="M29.71,28A12.39,12.39,0,0,1,40.53,38.77"/></svg>