<svg id="Layer_1" data-name="Layer 1" xmlns="http://www.w3.org/2000/svg" viewBox="0 0 65 65"><defs><style>.cls-1,.cls-2{fill:none;stroke-linecap:round;stroke-linejoin:round;}.cls-1{stroke:#000;}.cls-2{stroke:#f60;}</style></defs><line class="cls-1" x1="-25.91" y1="55.34" x2="19.55" y2="55.34"/><path class="cls-1" d="M53.59,55.8h4a4.71,4.71,0,0,0,4.35-6.54l-3.28-7.85a13.48,13.48,0,0,0-9.23-7.87l-20.51-5a19,19,0,0,1-5.23-2.12L4.79,15.34A15.19,15.19,0,0,0-3,13.23H-31.42a15.2,15.2,0,0,0-7.78,2.13l-15.9,9.4h-7.52a3.44,3.44,0,0,0-3.44,3.44v6h-1a3.43,3.43,0,0,0-3.44,3.43v12.4A3.44,3.44,0,0,0-67,53.49h7.53"/><circle class="cls-2" cx="36.68" cy="51.65" r="3.6"/><circle class="cls-1" cx="36.68" cy="51.65" r="12.82"/><path class="cls-2" d="M-9.85,20.39v3a5.09,5.09,0,0,0,5.09,5.09H14.93"/><line class="cls-1" x1="-5.53" y1="37.82" x2="2.68" y2="37.82"/></svg>