<svg xmlns="http://www.w3.org/2000/svg" width="72" height="38" viewBox="0 0 72 38" fill="none"><g clip-path="url(#clip0_1_506)"><path d="M53.9265 8.00952C55.9265 11.3095 57.1265 15.1095 57.1265 19.2095C57.1265 23.0095 56.1265 26.5095 54.4265 29.6095" stroke="white" stroke-miterlimit="10" stroke-linecap="round"></path><path d="M17.4265 30.1097C15.5265 26.9097 14.4265 23.2097 14.4265 19.2097C14.4265 15.0097 15.6265 11.1097 17.7265 7.70972" stroke="white" stroke-miterlimit="10" stroke-linecap="round"></path><path d="M59.9265 5.00952C62.4265 9.20952 63.8265 14.1095 63.8265 19.3095C63.8265 24.3095 62.5265 29.1095 60.2265 33.1095" stroke="white" stroke-miterlimit="10" stroke-linecap="round"></path><path d="M11.6266 33.6095C9.12656 29.4095 7.72656 24.5095 7.72656 19.3095C7.72656 13.9095 9.22656 8.80952 11.9266 4.50952" stroke="white" stroke-miterlimit="10" stroke-linecap="round"></path><path d="M65.7266 1.10962C68.9266 6.40962 70.8266 12.6096 70.8266 19.3096C70.8266 25.6096 69.1266 31.5096 66.2266 36.6096" stroke="white" stroke-miterlimit="10" stroke-linecap="round"></path><path d="M5.42656 36.8097C2.42656 31.7097 0.726562 25.7097 0.726562 19.3097C0.726562 12.7097 2.52656 6.50972 5.72656 1.20972" stroke="white" stroke-miterlimit="10" stroke-linecap="round"></path><path d="M22.1266 17.3096V20.2096" stroke="#FF6600" stroke-miterlimit="10" stroke-linecap="round"></path><path d="M25.6266 16.9097V20.7097" stroke="#FF6600" stroke-miterlimit="10" stroke-linecap="round"></path><path d="M29.0266 16.2097V21.4097" stroke="#FF6600" stroke-miterlimit="10" stroke-linecap="round"></path><path d="M42.6266 16.2097V21.4097" stroke="#FF6600" stroke-miterlimit="10" stroke-linecap="round"></path><path d="M46.2266 17.1096V20.5096" stroke="#FF6600" stroke-miterlimit="10" stroke-linecap="round"></path><path d="M49.5266 17.4097V20.2097" stroke="#FF6600" stroke-miterlimit="10" stroke-linecap="round"></path><path d="M32.4265 12.8096V24.7096" stroke="#FF6600" stroke-miterlimit="10" stroke-linecap="round"></path><path d="M39.4265 12.8096V24.7096" stroke="#FF6600" stroke-miterlimit="10" stroke-linecap="round"></path><path d="M35.9265 9.80957V27.8096" stroke="#FF6600" stroke-miterlimit="10" stroke-linecap="round"></path></g><defs><clipPath id="clip0_1_506"><rect width="71" height="36.7" fill="white" transform="translate(0.226562 0.609619)"></rect></clipPath></defs></svg>