<svg width="23" height="24" viewBox="0 0 23 24" fill="none" xmlns="http://www.w3.org/2000/svg">
<path d="M22.9916 11.8398C22.9916 13.5825 23.0147 15.3252 22.9916 17.0659C22.9839 18.7094 22.3129 20.2833 21.1246 21.4453C19.9363 22.6072 18.327 23.263 16.6469 23.27C13.3309 23.311 10.0136 23.311 6.69481 23.27C3.11475 23.229 0.360542 20.5001 0.331197 16.9818C0.301853 13.5333 0.301853 10.0833 0.331197 6.63204C0.358446 3.06046 3.12524 0.356144 6.77865 0.32334C10.0275 0.294636 13.2757 0.294636 16.5232 0.32334C20.185 0.352044 22.9434 3.04405 22.9937 6.61153C23.0126 8.35427 22.9916 10.097 22.9916 11.8398ZM2.59282 11.8008C2.59282 13.4738 2.57605 15.1468 2.59282 16.8199C2.62636 19.3807 4.32835 21.0291 6.94213 21.0393C10.082 21.0516 13.2261 21.0516 16.3744 21.0393C18.942 21.0393 20.686 19.3991 20.7111 16.9142C20.7488 13.4971 20.7488 10.0799 20.7111 6.66279C20.686 4.21681 18.9588 2.56224 16.4729 2.54994C13.2589 2.53353 10.045 2.53353 6.83106 2.54994C4.35143 2.56224 2.63894 4.22911 2.59702 6.67099C2.56977 8.38707 2.59492 10.095 2.59282 11.8008Z" fill="#FF6600"/>
<path d="M11.6079 5.45108C12.8959 5.44051 14.1581 5.80464 15.2341 6.49721C16.3102 7.18979 17.1515 8.17955 17.6512 9.3408C18.1509 10.502 18.2866 11.7824 18.0408 13.0192C17.7951 14.256 17.1791 15.3935 16.2711 16.2871C15.3632 17.1808 14.2041 17.7903 12.9412 18.0383C11.6784 18.2862 10.3686 18.1615 9.1784 17.6798C7.98816 17.1981 6.97114 16.3813 6.25649 15.3331C5.54184 14.2849 5.1618 13.0525 5.16466 11.7926C5.17281 10.1199 5.85302 8.51741 7.05847 7.33099C8.26393 6.14457 9.89797 5.46936 11.6079 5.45108ZM15.8566 11.8274C15.8603 11.0163 15.618 10.2222 15.1603 9.54577C14.7026 8.86934 14.0501 8.3409 13.2852 8.02729C12.5204 7.71368 11.6777 7.629 10.8637 7.78397C10.0497 7.93894 9.30093 8.32661 8.71218 8.8979C8.12344 9.4692 7.72115 10.1985 7.55621 10.9934C7.39127 11.7884 7.47109 12.6134 7.78557 13.364C8.10004 14.1146 8.63505 14.7571 9.32291 15.2102C10.0108 15.6633 10.8206 15.9067 11.6499 15.9095C12.2006 15.9133 12.7466 15.8106 13.2565 15.6072C13.7665 15.4038 14.2303 15.1037 14.6212 14.7243C15.0122 14.345 15.3226 13.8937 15.5346 13.3965C15.7467 12.8994 15.8561 12.3661 15.8566 11.8274Z" fill="#FF6600"/>
<path d="M19.181 5.75452C18.7995 5.9903 18.3761 6.45981 18.047 6.4024C17.7179 6.34499 17.2358 5.81602 17.1772 5.44287C17.1415 5.20299 17.7368 4.65147 18.0659 4.63712C18.4306 4.62277 18.8142 5.06358 19.1894 5.30551L19.181 5.75452Z" fill="#FF6600"/>
</svg>
