<svg width="24" height="20" viewBox="0 0 24 20" fill="none" xmlns="http://www.w3.org/2000/svg">
<path d="M11.8009 6.20365C11.771 5.6826 11.771 5.16033 11.8009 4.63929C12.2201 1.33629 15.0728 -0.353121 18.2987 0.799134C19.0931 1.08412 19.8686 1.64795 20.6567 1.65615C21.4448 1.66435 22.2078 1.12923 22.9834 0.836038L23.237 1.01031L21.5266 3.32097L23.9727 2.72433C23.2978 3.41323 22.8722 3.93195 22.3587 4.34611C21.7781 4.81562 21.5601 5.32614 21.5203 6.08474C21.0696 16.1311 11.0903 21.1338 3.58439 18.6898C2.58999 18.338 1.64434 17.8662 0.769379 17.2854C3.13163 17.1993 5.3283 16.8056 7.17073 15.272C6.2841 14.8968 5.35347 14.6713 4.6429 14.1567C3.93234 13.6421 3.43766 12.8281 2.71452 11.9916L4.57372 11.8686C2.53636 10.8434 1.30178 9.36928 1.13829 7.10783L2.94928 7.68397C1.17811 5.80181 0.819701 3.76998 1.75664 1.52082C3.32239 2.58492 4.80428 3.71051 6.40566 4.64134C8.04246 5.5947 9.89732 6.13181 11.8009 6.20365Z" fill="#FF6600"/>
</svg>
