<svg width="24" height="24" viewBox="0 0 24 24" fill="none" xmlns="http://www.w3.org/2000/svg">
<path d="M13.5427 9.41221C15.995 6.97033 19.5604 6.73456 21.8661 8.78279C22.457 9.29603 22.9274 9.92823 23.2451 10.636C23.5627 11.3438 23.7201 12.1105 23.7064 12.8833C23.7232 15.7865 23.7064 18.6918 23.719 21.595C23.719 22.4827 23.4151 22.9502 22.4383 22.8969C21.6704 22.8528 20.9005 22.8528 20.1327 22.8969C19.1601 22.9543 18.8436 22.5114 18.8561 21.6114C18.8876 19.3561 18.8687 17.1007 18.8561 14.8454C18.8643 14.47 18.844 14.0944 18.7954 13.7219C18.7107 13.0713 18.3812 12.4749 17.8711 12.0491C17.3611 11.6234 16.7071 11.3989 16.037 11.4194C15.3464 11.4408 14.6915 11.7248 14.2116 12.211C13.7317 12.6973 13.4647 13.3474 13.4672 14.0233C13.4295 16.5164 13.4567 19.0116 13.4504 21.5068C13.4504 22.7144 13.2785 22.8784 12.0691 22.8866C11.3711 22.8866 10.6711 22.8866 9.97307 22.8866C8.61064 22.8866 8.45346 22.737 8.45136 21.4289C8.45136 18.251 8.45136 15.0737 8.45136 11.8971C8.45136 10.872 8.46813 9.84687 8.45136 8.82173C8.43459 8.00162 8.79091 7.61618 9.6419 7.64898C10.2707 7.67563 10.8995 7.64898 11.5284 7.64898C13.2974 7.65308 13.2974 7.65308 13.5427 9.41221Z" fill="#FF6600"/>
<path d="M5.5064 15.3908C5.5064 17.5743 5.47914 19.7579 5.51896 21.9517C5.53573 22.8969 5.20876 23.3602 4.19008 23.3049C3.35165 23.2598 2.51323 23.2803 1.67481 23.3049C0.886698 23.3233 0.509422 22.9645 0.509422 22.2018C0.509422 17.7322 0.509422 13.2619 0.509422 8.79098C0.509422 8.04058 0.825925 7.64487 1.635 7.66332C2.5405 7.68383 3.44809 7.68793 4.35987 7.66332C5.22554 7.63872 5.52528 8.05082 5.51689 8.85657C5.49174 11.0237 5.5064 13.2073 5.5064 15.3908Z" fill="#FF6600"/>
<path d="M2.99744 0.32744C3.35955 0.317587 3.71999 0.378835 4.05749 0.507578C4.39498 0.636321 4.70267 0.829937 4.96236 1.07699C5.22204 1.32403 5.42847 1.6195 5.56942 1.94591C5.71038 2.27233 5.783 2.62308 5.783 2.97742C5.783 3.33176 5.71038 3.6825 5.56942 4.00892C5.42847 4.33533 5.22204 4.63079 4.96236 4.87784C4.70267 5.12489 4.39498 5.31851 4.05749 5.44725C3.71999 5.57599 3.35955 5.63725 2.99744 5.6274C2.29197 5.6082 1.62197 5.32058 1.12993 4.82571C0.63788 4.33084 0.36261 3.66775 0.36261 2.97742C0.36261 2.28709 0.63788 1.62399 1.12993 1.12912C1.62197 0.634244 2.29197 0.346636 2.99744 0.32744Z" fill="#FF6600"/>
</svg>
