<svg width="24" height="24" viewBox="0 0 24 24" fill="none" xmlns="http://www.w3.org/2000/svg">
<path d="M9.89959 23.2455C5.24426 23.4259 0.16973 17.8922 0.0062376 12.4897C-0.190791 6.0457 4.95502 0.676035 11.457 0.544817C14.5816 0.486616 17.6019 1.64466 19.8538 3.7643C22.1056 5.88395 23.4047 8.79163 23.4653 11.848C23.5533 17.7036 18.6255 23.2516 13.2323 23.3008V14.6036H15.8859C16.0452 13.5374 16.1877 12.5738 16.3512 11.4625H13.0646C13.2575 10.3451 13.1191 9.12931 13.6746 8.54293C14.1965 7.99346 15.452 8.10623 16.4623 7.91146V5.10463C15.1502 5.18869 13.8234 5.12103 12.5742 5.39577C11.0734 5.72381 10.2685 6.87197 10.0589 8.35022C9.95221 8.99143 9.9332 9.64366 10.0023 10.2898C10.149 11.3846 9.67532 11.6881 8.65455 11.5548C8.189 11.5258 7.72202 11.5258 7.25647 11.5548V14.6548H9.89542L9.89959 23.2455Z" fill="#FF6600"/>
</svg>
