<svg width="155" height="30" viewBox="0 0 155 30" fill="none" xmlns="http://www.w3.org/2000/svg">
<g clip-path="url(#clip0_1_241)">
<path d="M154.99 0.984622L119.49 0.984619L119.49 2.78462L154.99 2.78462L154.99 0.984622Z" fill="#1F1F1F"/>
<path d="M119.395 0.984623L80.0948 0.984619L80.0948 2.78462L119.395 2.78462L119.395 0.984623Z" fill="#7D7D7D"/>
<path d="M155.049 27.0339L124.449 27.0339L124.449 29.7339L155.049 29.7339L155.049 27.0339Z" fill="#F2F2F2"/>
<path d="M124.415 27.0339L90.6148 27.0339L90.6148 29.7339L124.415 29.7339L124.415 27.0339Z" fill="#7D7D7D"/>
<path d="M154.99 16.4429L119.49 16.4429L119.49 18.2429L154.99 18.2429L154.99 16.4429Z" fill="#1F1F1F"/>
<path d="M119.484 16.4429L40.484 16.4429L40.484 18.2429L119.484 18.2429L119.484 16.4429Z" fill="#7D7D7D"/>
<path d="M40.5454 16.4429L0.945404 16.4429L0.945404 18.2429L40.5454 18.2429L40.5454 16.4429Z" fill="#FF6600"/>
</g>
<defs>
<clipPath id="clip0_1_241">
<rect width="154.1" height="28.8" fill="white" transform="translate(155 29.7617) rotate(-180)"/>
</clipPath>
</defs>
</svg>
