<svg xmlns="http://www.w3.org/2000/svg" width="58" height="58" viewBox="0 0 58 58" fill="none"><g clip-path="url(#clip0_1_498)"><path d="M28.885 57.3096C44.349 57.3096 56.885 44.7735 56.885 29.3096C56.885 13.8456 44.349 1.30957 28.885 1.30957C13.421 1.30957 0.88501 13.8456 0.88501 29.3096C0.88501 44.7735 13.421 57.3096 28.885 57.3096Z" stroke="white" stroke-miterlimit="10"></path><path d="M36.385 4.70947C36.385 4.70947 35.385 6.00947 35.585 7.30947C35.685 8.70947 36.085 9.90947 34.885 10.4095C33.685 10.9095 29.485 10.4095 28.985 12.4095C28.485 14.4095 28.385 15.1095 25.785 16.2095C23.185 17.3095 21.685 18.6095 22.385 19.6095C23.085 20.6095 33.585 19.4095 34.585 19.6095C35.585 19.8095 38.185 20.9095 37.885 22.3095C37.485 23.7095 36.185 23.1095 34.685 23.3095C33.185 23.4095 33.785 24.2095 32.085 23.5095C30.385 22.8095 27.985 21.7095 25.485 22.1095C22.985 22.5095 19.785 22.8095 18.885 26.5095C17.885 30.2095 17.385 31.9095 18.285 32.9095C19.185 33.9095 23.585 35.5095 23.585 35.5095C23.585 35.5095 26.185 35.2095 27.785 36.1095C29.385 37.0095 29.285 37.1095 29.485 39.0095C29.685 40.9095 31.185 40.1095 30.985 42.7095C30.785 45.3095 30.285 46.4095 31.485 48.3095C32.685 50.2095 34.485 51.3095 35.785 49.7095C37.085 48.1095 40.585 44.9095 40.685 43.2095C40.785 41.5095 40.485 39.8095 41.385 38.4095C42.185 37.0095 46.185 33.7095 45.285 33.0095C44.385 32.4095 44.685 33.2095 43.485 32.7095C42.285 32.2095 38.785 25.7095 39.985 26.0095C41.185 26.3095 43.785 29.3095 44.885 28.4095C45.985 27.5095 48.085 25.0095 46.785 24.7095C45.485 24.3095 43.285 23.2095 44.985 22.9095C46.685 22.5095 49.585 23.1095 50.285 24.4095C50.985 25.7095 52.685 28.2095 52.985 26.5095C53.285 24.8095 53.085 22.5095 53.985 21.9095" stroke="#FF6600" stroke-miterlimit="10"></path><path d="M6.785 19.2096C6.785 19.2096 8.385 16.4096 10.885 15.2096C13.385 14.0096 16.485 12.9096 16.385 10.6096C16.285 8.30957 16.285 8.30957 16.285 8.30957" stroke="#FF6600" stroke-miterlimit="10"></path><path d="M26.385 4.20947C26.385 4.20947 26.785 5.50947 24.685 6.00947C22.685 6.50947 19.685 8.40947 19.985 9.30947C20.285 10.2095 21.785 10.0095 23.885 9.00947C25.985 8.00947 26.885 8.10947 30.085 7.10947C33.285 6.10947 33.685 5.10947 33.685 5.10947" stroke="#FF6600" stroke-miterlimit="10"></path><path d="M4.08502 25.4097C4.08502 25.4097 6.28502 26.3097 5.88502 29.2097C5.48502 32.1097 6.38502 34.7097 7.58502 35.2097C8.78502 35.7097 10.485 36.1097 10.585 38.5097C10.685 40.9097 9.98502 44.6097 10.085 44.9097" stroke="#FF6600" stroke-miterlimit="10"></path><path d="M42.385 44.4097C42.385 44.4097 43.685 41.0097 44.585 41.2097C45.485 41.4097 45.185 43.4097 44.985 44.2097C44.785 45.0097 43.685 47.1097 42.885 46.5097C41.885 46.0097 42.385 44.4097 42.385 44.4097Z" stroke="#FF6600" stroke-miterlimit="10"></path></g><defs><clipPath id="clip0_1_498"><rect width="57" height="57" fill="white" transform="translate(0.38501 0.80957)"></rect></clipPath></defs></svg>